<svg width="3283" height="1080" viewBox="0 0 3283 1080" fill="none" xmlns="http://www.w3.org/2000/svg">
<rect x="490" y="91" width="100" height="603" rx="24" fill="#929292"/>
<path fill-rule="evenodd" clip-rule="evenodd" d="M463 526.368L219.571 948C210.333 964 221.88 984 240.355 984H839.645C858.12 984 869.667 964 860.429 948L617 526.368V698C617 711.255 606.255 722 593 722H487C473.745 722 463 711.255 463 698V526.368Z" fill="#2E2F2F"/>
<path fill-rule="evenodd" clip-rule="evenodd" d="M463 526.368L219.571 948C210.333 964 221.88 984 240.355 984H839.645C858.12 984 869.667 964 860.429 948L617 526.368V698C617 711.255 606.255 722 593 722H487C473.745 722 463 711.255 463 698V526.368Z" fill="url(#paint0_linear_402_124)"/>
<path d="M1159.09 322.837L1155.35 321.235L1100.61 246.742C1101.5 243.716 1103.02 241.224 1105.15 239.266C1107.29 237.13 1110.05 236.062 1113.43 236.062C1116.28 236.062 1118.68 236.952 1120.64 238.732C1122.6 240.334 1124.64 242.648 1126.78 245.674L1170.57 308.419L1176.71 313.759L1232.78 391.456C1232.07 394.482 1230.64 396.974 1228.51 398.932C1226.55 400.89 1223.88 401.869 1220.5 401.869C1217.65 401.869 1215.25 401.157 1213.29 399.733C1211.51 398.309 1209.55 395.995 1207.41 392.791L1159.09 322.837ZM1177.24 319.633L1171.37 324.973L1116.63 401.335C1115.92 401.513 1115.03 401.602 1113.96 401.602C1113.07 401.78 1112.18 401.869 1111.29 401.869C1107.73 401.869 1104.89 400.979 1102.75 399.199C1100.61 397.419 1099.55 395.105 1099.55 392.257C1099.55 389.943 1100.08 387.807 1101.15 385.849C1102.39 383.713 1103.91 381.488 1105.69 379.174L1155.62 313.759L1162.82 307.084L1213.55 236.863C1214.44 236.685 1215.33 236.596 1216.22 236.596C1217.11 236.418 1218.09 236.329 1219.16 236.329C1222.9 236.329 1225.66 237.219 1227.44 238.999C1229.4 240.779 1230.38 243.004 1230.38 245.674C1230.38 247.454 1229.84 249.323 1228.77 251.281C1227.88 253.239 1226.73 255.197 1225.3 257.155C1217.65 267.479 1209.82 277.892 1201.81 288.394C1193.8 298.718 1185.61 309.131 1177.24 319.633ZM1263.44 237.664C1263.44 233.926 1264.77 230.811 1267.44 228.319C1270.11 225.649 1273.4 224.314 1277.32 224.314C1281.41 224.314 1284.71 225.649 1287.2 228.319C1289.69 230.811 1290.94 233.926 1290.94 237.664C1290.94 241.402 1289.69 244.606 1287.2 247.276C1284.71 249.768 1281.41 251.014 1277.32 251.014C1273.4 251.014 1270.11 249.768 1267.44 247.276C1264.77 244.606 1263.44 241.402 1263.44 237.664ZM1266.64 329.512H1288V399.466C1287.11 399.822 1285.77 400.178 1283.99 400.534C1282.21 401.068 1280.26 401.335 1278.12 401.335C1274.38 401.335 1271.53 400.623 1269.58 399.199C1267.62 397.597 1266.64 395.105 1266.64 391.723V329.512ZM1288 339.925H1266.64V277.18C1267.53 276.824 1268.86 276.468 1270.64 276.112C1272.6 275.578 1274.65 275.311 1276.79 275.311C1280.52 275.311 1283.28 276.112 1285.06 277.714C1287.02 279.138 1288 281.63 1288 285.19V339.925ZM1436.51 318.565V345.799H1415.15V319.633C1415.15 309.665 1412.3 302.367 1406.6 297.739C1401.09 293.111 1393.61 290.797 1384.18 290.797C1377.06 290.797 1370.74 291.687 1365.22 293.467C1359.7 295.247 1354.98 297.294 1351.07 299.608V345.799H1329.71V300.676C1329.71 296.938 1330.42 293.912 1331.84 291.598C1333.45 289.106 1336.12 286.703 1339.85 284.389C1344.48 281.719 1350.62 279.227 1358.28 276.913C1365.93 274.421 1374.56 273.175 1384.18 273.175C1400.37 273.175 1413.1 276.913 1422.36 284.389C1431.79 291.687 1436.51 303.079 1436.51 318.565ZM1329.71 331.114H1351.07V399.466C1350.18 399.822 1348.84 400.178 1347.06 400.534C1345.28 401.068 1343.32 401.335 1341.19 401.335C1337.45 401.335 1334.6 400.623 1332.64 399.199C1330.69 397.597 1329.71 395.105 1329.71 391.723V331.114ZM1415.15 331.114H1436.51V399.466C1435.62 399.822 1434.19 400.178 1432.24 400.534C1430.46 401.068 1428.59 401.335 1426.63 401.335C1422.71 401.335 1419.78 400.623 1417.82 399.199C1416.04 397.597 1415.15 395.105 1415.15 391.723V331.114ZM1533.7 305.215H1555.59V397.864L1545.44 400C1542.06 400 1539.21 398.932 1536.9 396.796C1534.76 394.482 1533.7 391.634 1533.7 388.252V305.215ZM1545.44 400V381.31H1632.22C1633.11 382.022 1633.82 383.179 1634.35 384.781C1634.89 386.383 1635.16 388.163 1635.16 390.121C1635.16 393.147 1634.35 395.55 1632.75 397.33C1631.15 399.11 1629.01 400 1626.34 400H1545.44ZM1555.59 321.235H1533.7V238.198C1534.59 237.842 1535.92 237.486 1537.7 237.13C1539.66 236.596 1541.71 236.329 1543.84 236.329C1547.76 236.329 1550.69 237.13 1552.65 238.732C1554.61 240.156 1555.59 242.648 1555.59 246.208V321.235ZM1707.77 403.738C1691.04 403.738 1678.05 400.445 1668.79 393.859C1659.71 387.273 1655.17 377.75 1655.17 365.29C1655.17 353.72 1659 344.909 1666.66 338.857C1674.49 332.627 1685.26 328.889 1698.96 327.643L1736.88 323.905V316.429C1736.88 307.529 1734.21 301.032 1728.87 296.938C1723.53 292.844 1716.32 290.797 1707.24 290.797C1699.94 290.797 1692.91 291.865 1686.15 294.001C1679.56 296.137 1673.69 298.54 1668.52 301.21C1667.1 299.964 1665.77 298.54 1664.52 296.938C1663.45 295.158 1662.92 293.378 1662.92 291.598C1662.92 286.97 1665.5 283.41 1670.66 280.918C1675.47 278.426 1680.98 276.557 1687.21 275.311C1693.62 273.887 1700.39 273.175 1707.51 273.175C1722.99 273.175 1735.27 276.646 1744.35 283.588C1753.43 290.53 1757.97 301.477 1757.97 316.429V379.708C1757.97 383.624 1757.17 386.65 1755.57 388.786C1754.14 390.744 1751.92 392.613 1748.89 394.393C1744.62 396.707 1738.92 398.843 1731.8 400.801C1724.68 402.759 1716.67 403.738 1707.77 403.738ZM1707.77 386.116C1715.25 386.116 1721.39 385.404 1726.2 383.98C1731.18 382.378 1734.74 380.865 1736.88 379.441V340.726L1703.77 344.197C1694.51 344.909 1687.66 346.956 1683.21 350.338C1678.76 353.72 1676.53 358.615 1676.53 365.023C1676.53 371.609 1679.12 376.771 1684.28 380.509C1689.62 384.247 1697.45 386.116 1707.77 386.116ZM1851.96 273.175C1863 273.175 1872.87 275.578 1881.6 280.384C1890.5 285.012 1897.44 292.132 1902.42 301.744C1907.58 311.356 1910.17 323.549 1910.17 338.323C1910.17 353.275 1907.5 365.557 1902.16 375.169C1896.99 384.781 1889.78 391.901 1880.53 396.529C1871.27 401.157 1860.5 403.471 1848.22 403.471C1839.5 403.471 1831.58 402.403 1824.46 400.267C1817.52 398.131 1811.82 395.817 1807.37 393.325C1803.63 390.833 1801.05 388.519 1799.63 386.383C1798.2 384.247 1797.49 381.31 1797.49 377.572V288.661H1818.85V377.572C1821.52 379.53 1825.44 381.399 1830.6 383.179C1835.76 384.959 1841.64 385.849 1848.22 385.849C1860.33 385.849 1870.03 382.022 1877.32 374.368C1884.8 366.714 1888.54 354.699 1888.54 338.323C1888.54 321.769 1884.8 309.754 1877.32 302.278C1869.85 294.624 1860.33 290.797 1848.76 290.797C1841.64 290.797 1835.32 292.221 1829.8 295.069C1824.28 297.739 1819.74 300.854 1816.18 304.414L1812.18 287.059C1816.09 284.033 1821.34 281.007 1827.93 277.981C1834.52 274.777 1842.53 273.175 1851.96 273.175ZM1818.85 292.933H1797.49V226.984C1798.38 226.628 1799.72 226.272 1801.5 225.916C1803.45 225.382 1805.5 225.115 1807.64 225.115C1811.38 225.115 1814.13 225.916 1815.91 227.518C1817.87 228.942 1818.85 231.345 1818.85 234.727V292.933Z" fill="white"/>
<path d="M1115.52 771.072C1106.25 771.072 1099.04 769.247 1093.91 765.596C1088.88 761.945 1086.36 756.667 1086.36 749.76C1086.36 743.347 1088.49 738.463 1092.73 735.108C1097.07 731.655 1103.04 729.583 1110.64 728.892L1131.65 726.82V722.676C1131.65 717.743 1130.17 714.141 1127.21 711.872C1124.25 709.603 1120.26 708.468 1115.22 708.468C1111.18 708.468 1107.28 709.06 1103.53 710.244C1099.88 711.428 1096.63 712.76 1093.76 714.24C1092.97 713.549 1092.23 712.76 1091.54 711.872C1090.95 710.885 1090.66 709.899 1090.66 708.912C1090.66 706.347 1092.09 704.373 1094.95 702.992C1097.61 701.611 1100.67 700.575 1104.12 699.884C1107.68 699.095 1111.43 698.7 1115.37 698.7C1123.96 698.7 1130.76 700.624 1135.8 704.472C1140.83 708.32 1143.34 714.388 1143.34 722.676V757.752C1143.34 759.923 1142.9 761.6 1142.01 762.784C1141.22 763.869 1139.99 764.905 1138.31 765.892C1135.94 767.175 1132.79 768.359 1128.84 769.444C1124.89 770.529 1120.45 771.072 1115.52 771.072ZM1115.52 761.304C1119.66 761.304 1123.07 760.909 1125.73 760.12C1128.49 759.232 1130.47 758.393 1131.65 757.604V736.144L1113.3 738.068C1108.17 738.463 1104.37 739.597 1101.9 741.472C1099.44 743.347 1098.2 746.06 1098.2 749.612C1098.2 753.263 1099.63 756.124 1102.5 758.196C1105.46 760.268 1109.8 761.304 1115.52 761.304ZM1195.77 729.928L1207.61 731.704V768.704C1207.12 768.901 1206.38 769.099 1205.39 769.296C1204.4 769.592 1203.32 769.74 1202.13 769.74C1200.06 769.74 1198.48 769.345 1197.4 768.556C1196.31 767.668 1195.77 766.287 1195.77 764.412V729.928ZM1207.61 737.328L1195.77 735.7V673.096C1196.26 672.899 1197 672.701 1197.99 672.504C1199.07 672.208 1200.16 672.06 1201.24 672.06C1203.42 672.06 1204.99 672.504 1205.98 673.392C1207.07 674.181 1207.61 675.513 1207.61 677.388V737.328ZM1230.26 679.016C1230.26 676.944 1231 675.217 1232.48 673.836C1233.96 672.356 1235.78 671.616 1237.96 671.616C1240.22 671.616 1242.05 672.356 1243.43 673.836C1244.81 675.217 1245.5 676.944 1245.5 679.016C1245.5 681.088 1244.81 682.864 1243.43 684.344C1242.05 685.725 1240.22 686.416 1237.96 686.416C1235.78 686.416 1233.96 685.725 1232.48 684.344C1231 682.864 1230.26 681.088 1230.26 679.016ZM1232.04 729.928H1243.88V768.704C1243.38 768.901 1242.64 769.099 1241.66 769.296C1240.67 769.592 1239.58 769.74 1238.4 769.74C1236.33 769.74 1234.75 769.345 1233.66 768.556C1232.58 767.668 1232.04 766.287 1232.04 764.412V729.928ZM1243.88 735.7H1232.04V700.92C1232.53 700.723 1233.27 700.525 1234.26 700.328C1235.34 700.032 1236.48 699.884 1237.66 699.884C1239.73 699.884 1241.26 700.328 1242.25 701.216C1243.33 702.005 1243.88 703.387 1243.88 705.36V735.7ZM1267.14 729.928H1278.98V750.352C1278.98 754.299 1280.12 757.111 1282.39 758.788C1284.66 760.367 1287.76 761.156 1291.71 761.156C1293.39 761.156 1295.26 760.86 1297.33 760.268C1299.41 759.676 1301.13 758.985 1302.51 758.196C1303.11 758.788 1303.65 759.528 1304.14 760.416C1304.64 761.304 1304.88 762.34 1304.88 763.524C1304.88 765.695 1303.6 767.471 1301.03 768.852C1298.47 770.233 1294.92 770.924 1290.38 770.924C1283.47 770.924 1277.85 769.395 1273.51 766.336C1269.26 763.277 1267.14 758.196 1267.14 751.092V729.928ZM1273.21 711.872V702.104H1303.25C1303.55 702.499 1303.85 703.14 1304.14 704.028C1304.44 704.916 1304.59 705.853 1304.59 706.84C1304.59 708.419 1304.19 709.652 1303.4 710.54C1302.61 711.428 1301.53 711.872 1300.15 711.872H1273.21ZM1278.98 734.368H1267.14V680.792C1267.64 680.595 1268.38 680.397 1269.36 680.2C1270.45 679.904 1271.58 679.756 1272.77 679.756C1274.84 679.756 1276.37 680.2 1277.35 681.088C1278.44 681.877 1278.98 683.209 1278.98 685.084V734.368ZM1321.05 729.928H1332.89V750.352C1332.89 754.299 1334.03 757.111 1336.3 758.788C1338.57 760.367 1341.67 761.156 1345.62 761.156C1347.3 761.156 1349.17 760.86 1351.24 760.268C1353.32 759.676 1355.04 758.985 1356.42 758.196C1357.02 758.788 1357.56 759.528 1358.05 760.416C1358.55 761.304 1358.79 762.34 1358.79 763.524C1358.79 765.695 1357.51 767.471 1354.94 768.852C1352.38 770.233 1348.83 770.924 1344.29 770.924C1337.38 770.924 1331.76 769.395 1327.42 766.336C1323.17 763.277 1321.05 758.196 1321.05 751.092V729.928ZM1327.12 711.872V702.104H1357.16C1357.46 702.499 1357.76 703.14 1358.05 704.028C1358.35 704.916 1358.5 705.853 1358.5 706.84C1358.5 708.419 1358.1 709.652 1357.31 710.54C1356.52 711.428 1355.44 711.872 1354.06 711.872H1327.12ZM1332.89 734.368H1321.05V680.792C1321.55 680.595 1322.29 680.397 1323.27 680.2C1324.36 679.904 1325.49 679.756 1326.68 679.756C1328.75 679.756 1330.28 680.2 1331.26 681.088C1332.35 681.877 1332.89 683.209 1332.89 685.084V734.368ZM1376.43 729.928L1388.27 731.704V768.704C1387.78 768.901 1387.04 769.099 1386.05 769.296C1385.07 769.592 1383.98 769.74 1382.8 769.74C1380.72 769.74 1379.15 769.345 1378.06 768.556C1376.98 767.668 1376.43 766.287 1376.43 764.412V729.928ZM1388.27 737.328L1376.43 735.7V673.096C1376.93 672.899 1377.67 672.701 1378.65 672.504C1379.74 672.208 1380.82 672.06 1381.91 672.06C1384.08 672.06 1385.66 672.504 1386.64 673.392C1387.73 674.181 1388.27 675.513 1388.27 677.388V737.328ZM1415.96 742.36L1415.37 733.036L1460.07 726.968C1459.67 721.541 1457.8 717.101 1454.44 713.648C1451.09 710.096 1446.45 708.32 1440.53 708.32C1434.41 708.32 1429.33 710.54 1425.29 714.98C1421.34 719.321 1419.37 725.587 1419.37 733.776V737.032C1420.06 744.925 1422.62 750.944 1427.06 755.088C1431.6 759.133 1437.77 761.156 1445.56 761.156C1449.71 761.156 1453.46 760.465 1456.81 759.084C1460.16 757.703 1462.83 756.223 1464.8 754.644C1465.89 755.335 1466.73 756.173 1467.32 757.16C1468.01 758.048 1468.35 759.084 1468.35 760.268C1468.35 762.143 1467.27 763.919 1465.1 765.596C1463.03 767.175 1460.21 768.457 1456.66 769.444C1453.21 770.431 1449.31 770.924 1444.97 770.924C1437.37 770.924 1430.76 769.543 1425.14 766.78C1419.61 764.017 1415.32 759.923 1412.26 754.496C1409.3 748.971 1407.82 742.261 1407.82 734.368C1407.82 728.744 1408.61 723.761 1410.19 719.42C1411.87 714.98 1414.14 711.231 1417 708.172C1419.96 705.113 1423.46 702.795 1427.51 701.216C1431.55 699.539 1435.94 698.7 1440.68 698.7C1446.7 698.7 1451.98 699.983 1456.51 702.548C1461.15 705.113 1464.75 708.715 1467.32 713.352C1469.98 717.891 1471.31 723.12 1471.31 729.04C1471.31 731.211 1470.82 732.789 1469.83 733.776C1468.85 734.664 1467.47 735.207 1465.69 735.404L1415.96 742.36ZM1519.23 729.928L1531.07 731.704V768.704C1530.58 768.901 1529.84 769.099 1528.85 769.296C1527.86 769.592 1526.78 769.74 1525.59 769.74C1523.52 769.74 1521.94 769.345 1520.86 768.556C1519.77 767.668 1519.23 766.287 1519.23 764.412V729.928ZM1531.07 737.328L1519.23 735.7V673.096C1519.72 672.899 1520.46 672.701 1521.45 672.504C1522.53 672.208 1523.62 672.06 1524.71 672.06C1526.88 672.06 1528.45 672.504 1529.44 673.392C1530.53 674.181 1531.07 675.513 1531.07 677.388V737.328ZM1578.89 771.072C1569.61 771.072 1562.41 769.247 1557.28 765.596C1552.25 761.945 1549.73 756.667 1549.73 749.76C1549.73 743.347 1551.85 738.463 1556.1 735.108C1560.44 731.655 1566.41 729.583 1574 728.892L1595.02 726.82V722.676C1595.02 717.743 1593.54 714.141 1590.58 711.872C1587.62 709.603 1583.62 708.468 1578.59 708.468C1574.55 708.468 1570.65 709.06 1566.9 710.244C1563.25 711.428 1559.99 712.76 1557.13 714.24C1556.34 713.549 1555.6 712.76 1554.91 711.872C1554.32 710.885 1554.02 709.899 1554.02 708.912C1554.02 706.347 1555.45 704.373 1558.32 702.992C1560.98 701.611 1564.04 700.575 1567.49 699.884C1571.04 699.095 1574.79 698.7 1578.74 698.7C1587.32 698.7 1594.13 700.624 1599.16 704.472C1604.2 708.32 1606.71 714.388 1606.71 722.676V757.752C1606.71 759.923 1606.27 761.6 1605.38 762.784C1604.59 763.869 1603.36 764.905 1601.68 765.892C1599.31 767.175 1596.15 768.359 1592.21 769.444C1588.26 770.529 1583.82 771.072 1578.89 771.072ZM1578.89 761.304C1583.03 761.304 1586.44 760.909 1589.1 760.12C1591.86 759.232 1593.84 758.393 1595.02 757.604V736.144L1576.67 738.068C1571.54 738.463 1567.74 739.597 1565.27 741.472C1562.8 743.347 1561.57 746.06 1561.57 749.612C1561.57 753.263 1563 756.124 1565.86 758.196C1568.82 760.268 1573.16 761.304 1578.89 761.304ZM1658.81 698.7C1664.93 698.7 1670.4 700.032 1675.24 702.696C1680.17 705.261 1684.02 709.208 1686.78 714.536C1689.64 719.864 1691.07 726.623 1691.07 734.812C1691.07 743.1 1689.59 749.908 1686.63 755.236C1683.77 760.564 1679.78 764.511 1674.65 767.076C1669.52 769.641 1663.55 770.924 1656.74 770.924C1651.9 770.924 1647.51 770.332 1643.57 769.148C1639.72 767.964 1636.56 766.681 1634.09 765.3C1632.02 763.919 1630.59 762.636 1629.8 761.452C1629.01 760.268 1628.62 758.64 1628.62 756.568V707.284H1640.46V756.568C1641.94 757.653 1644.11 758.689 1646.97 759.676C1649.83 760.663 1653.09 761.156 1656.74 761.156C1663.45 761.156 1668.83 759.035 1672.87 754.792C1677.01 750.549 1679.09 743.889 1679.09 734.812C1679.09 725.636 1677.01 718.976 1672.87 714.832C1668.73 710.589 1663.45 708.468 1657.03 708.468C1653.09 708.468 1649.59 709.257 1646.53 710.836C1643.47 712.316 1640.95 714.043 1638.98 716.016L1636.76 706.396C1638.93 704.719 1641.84 703.041 1645.49 701.364C1649.14 699.588 1653.58 698.7 1658.81 698.7ZM1640.46 709.652H1628.62V673.096C1629.11 672.899 1629.85 672.701 1630.84 672.504C1631.92 672.208 1633.06 672.06 1634.24 672.06C1636.31 672.06 1637.84 672.504 1638.83 673.392C1639.92 674.181 1640.46 675.513 1640.46 677.388V709.652ZM1749.09 714.092V704.472H1780.47C1780.77 704.867 1781.06 705.508 1781.36 706.396C1781.65 707.185 1781.8 708.123 1781.8 709.208C1781.8 710.787 1781.41 712.02 1780.62 712.908C1779.83 713.697 1778.69 714.092 1777.21 714.092H1749.09ZM1751.17 695.148V712.464H1739.47V694.556C1739.47 688.735 1740.51 684.048 1742.58 680.496C1744.75 676.845 1747.81 674.181 1751.76 672.504C1755.8 670.728 1760.59 669.84 1766.11 669.84C1771.74 669.84 1776.13 670.58 1779.29 672.06C1782.54 673.54 1784.17 675.365 1784.17 677.536C1784.17 678.621 1783.92 679.608 1783.43 680.496C1783.04 681.384 1782.44 682.223 1781.65 683.012C1779.88 682.025 1777.66 681.236 1774.99 680.644C1772.33 679.953 1769.76 679.608 1767.3 679.608C1761.28 679.608 1757.09 680.841 1754.72 683.308C1752.35 685.775 1751.17 689.721 1751.17 695.148ZM1739.47 705.952H1751.31V768.704C1750.82 768.901 1750.08 769.099 1749.09 769.296C1748.11 769.592 1747.02 769.74 1745.84 769.74C1743.77 769.74 1742.19 769.345 1741.1 768.556C1740.02 767.668 1739.47 766.287 1739.47 764.412V705.952ZM1857.3 734.812C1857.3 742.113 1855.92 748.477 1853.16 753.904C1850.4 759.331 1846.5 763.524 1841.47 766.484C1836.43 769.444 1830.51 770.924 1823.71 770.924C1816.9 770.924 1810.93 769.444 1805.8 766.484C1800.77 763.524 1796.87 759.331 1794.11 753.904C1791.34 748.477 1789.96 742.113 1789.96 734.812C1789.96 727.412 1791.34 721.048 1794.11 715.72C1796.97 710.293 1800.91 706.1 1805.95 703.14C1811.08 700.18 1817 698.7 1823.71 698.7C1830.42 698.7 1836.29 700.18 1841.32 703.14C1846.35 706.1 1850.25 710.293 1853.01 715.72C1855.87 721.048 1857.3 727.412 1857.3 734.812ZM1823.71 708.468C1817.1 708.468 1811.82 710.836 1807.87 715.572C1804.02 720.209 1802.1 726.623 1802.1 734.812C1802.1 743.1 1803.97 749.563 1807.72 754.2C1811.57 758.837 1816.9 761.156 1823.71 761.156C1830.42 761.156 1835.65 758.837 1839.39 754.2C1843.24 749.464 1845.17 743.001 1845.17 734.812C1845.17 726.623 1843.24 720.209 1839.39 715.572C1835.65 710.836 1830.42 708.468 1823.71 708.468ZM1887.46 713.352V736.736H1875.62V714.24C1875.62 711.971 1876.01 710.195 1876.8 708.912C1877.69 707.531 1879.12 706.199 1881.09 704.916C1883.66 703.239 1887.16 701.808 1891.6 700.624C1896.04 699.341 1900.97 698.7 1906.4 698.7C1914.29 698.7 1918.24 700.673 1918.24 704.62C1918.24 705.607 1918.09 706.544 1917.8 707.432C1917.5 708.221 1917.1 708.912 1916.61 709.504C1915.62 709.307 1914.34 709.109 1912.76 708.912C1911.18 708.715 1909.61 708.616 1908.03 708.616C1903.49 708.616 1899.49 709.109 1896.04 710.096C1892.59 710.984 1889.72 712.069 1887.46 713.352ZM1875.62 729.928L1887.46 731.704V768.704C1886.96 768.901 1886.22 769.099 1885.24 769.296C1884.25 769.592 1883.16 769.74 1881.98 769.74C1879.91 769.74 1878.33 769.345 1877.24 768.556C1876.16 767.668 1875.62 766.287 1875.62 764.412V729.928ZM2010 750.796C2010 757.111 2007.69 762.044 2003.05 765.596C1998.41 769.148 1991.7 770.924 1982.92 770.924C1975.42 770.924 1969.3 769.789 1964.57 767.52C1959.83 765.152 1957.46 762.587 1957.46 759.824C1957.46 758.64 1957.76 757.505 1958.35 756.42C1959.04 755.236 1960.03 754.299 1961.31 753.608C1963.98 755.483 1967.08 757.209 1970.64 758.788C1974.19 760.367 1978.23 761.156 1982.77 761.156C1993.03 761.156 1998.16 757.703 1998.16 750.796C1998.16 747.935 1997.28 745.616 1995.5 743.84C1993.82 741.965 1991.31 740.633 1987.95 739.844L1975.67 736.588C1969.65 735.108 1965.26 732.839 1962.5 729.78C1959.73 726.623 1958.35 722.725 1958.35 718.088C1958.35 712.859 1960.47 708.32 1964.72 704.472C1968.96 700.624 1975.42 698.7 1984.1 698.7C1988.74 698.7 1992.79 699.193 1996.24 700.18C1999.69 701.068 2002.36 702.301 2004.23 703.88C2006.21 705.36 2007.19 706.988 2007.19 708.764C2007.19 710.047 2006.85 711.181 2006.16 712.168C2005.56 713.155 2004.73 713.895 2003.64 714.388C2002.46 713.599 2000.93 712.76 1999.05 711.872C1997.28 710.885 1995.15 710.096 1992.69 709.504C1990.22 708.813 1987.51 708.468 1984.55 708.468C1980.21 708.468 1976.7 709.307 1974.04 710.984C1971.38 712.661 1970.04 715.029 1970.04 718.088C1970.04 720.259 1970.78 722.183 1972.26 723.86C1973.84 725.439 1976.31 726.623 1979.66 727.412L1989.88 729.928C1996.59 731.507 2001.62 734.023 2004.97 737.476C2008.33 740.831 2010 745.271 2010 750.796ZM2026.92 679.016C2026.92 676.944 2027.66 675.217 2029.14 673.836C2030.62 672.356 2032.44 671.616 2034.61 671.616C2036.88 671.616 2038.71 672.356 2040.09 673.836C2041.47 675.217 2042.16 676.944 2042.16 679.016C2042.16 681.088 2041.47 682.864 2040.09 684.344C2038.71 685.725 2036.88 686.416 2034.61 686.416C2032.44 686.416 2030.62 685.725 2029.14 684.344C2027.66 682.864 2026.92 681.088 2026.92 679.016ZM2028.69 729.928H2040.53V768.704C2040.04 768.901 2039.3 769.099 2038.31 769.296C2037.32 769.592 2036.24 769.74 2035.06 769.74C2032.98 769.74 2031.4 769.345 2030.32 768.556C2029.23 767.668 2028.69 766.287 2028.69 764.412V729.928ZM2040.53 735.7H2028.69V700.92C2029.18 700.723 2029.92 700.525 2030.91 700.328C2032 700.032 2033.13 699.884 2034.32 699.884C2036.39 699.884 2037.92 700.328 2038.9 701.216C2039.99 702.005 2040.53 703.387 2040.53 705.36V735.7ZM2122.85 723.86V738.956H2111.01V724.452C2111.01 718.927 2109.43 714.881 2106.27 712.316C2103.22 709.751 2099.07 708.468 2093.84 708.468C2089.9 708.468 2086.39 708.961 2083.33 709.948C2080.28 710.935 2077.66 712.069 2075.49 713.352V738.956H2063.65V713.944C2063.65 711.872 2064.05 710.195 2064.83 708.912C2065.72 707.531 2067.2 706.199 2069.27 704.916C2071.84 703.436 2075.24 702.055 2079.49 700.772C2083.73 699.391 2088.51 698.7 2093.84 698.7C2102.82 698.7 2109.88 700.772 2115.01 704.916C2120.24 708.961 2122.85 715.276 2122.85 723.86ZM2063.65 730.816H2075.49V768.704C2075 768.901 2074.26 769.099 2073.27 769.296C2072.28 769.592 2071.2 769.74 2070.01 769.74C2067.94 769.74 2066.36 769.345 2065.28 768.556C2064.19 767.668 2063.65 766.287 2063.65 764.412V730.816ZM2111.01 730.816H2122.85V768.704C2122.36 768.901 2121.57 769.099 2120.48 769.296C2119.5 769.592 2118.46 769.74 2117.37 769.74C2115.2 769.74 2113.58 769.345 2112.49 768.556C2111.5 767.668 2111.01 766.287 2111.01 764.412V730.816ZM2204.22 723.86V738.956H2192.38V724.452C2192.38 718.927 2190.8 714.881 2187.65 712.316C2184.59 709.751 2180.44 708.468 2175.21 708.468C2171.27 708.468 2167.76 708.961 2164.71 709.948C2161.65 710.935 2159.03 712.069 2156.86 713.352V738.956H2145.02V713.944C2145.02 711.872 2145.42 710.195 2146.21 708.912C2147.09 707.531 2148.57 706.199 2150.65 704.916C2153.21 703.436 2156.62 702.055 2160.86 700.772C2165.1 699.391 2169.89 698.7 2175.21 698.7C2184.19 698.7 2191.25 700.772 2196.38 704.916C2201.61 708.961 2204.22 715.276 2204.22 723.86ZM2145.02 730.816H2156.86V768.704C2156.37 768.901 2155.63 769.099 2154.64 769.296C2153.66 769.592 2152.57 769.74 2151.39 769.74C2149.31 769.74 2147.74 769.345 2146.65 768.556C2145.56 767.668 2145.02 766.287 2145.02 764.412V730.816ZM2192.38 730.816H2204.22V768.704C2203.73 768.901 2202.94 769.099 2201.85 769.296C2200.87 769.592 2199.83 769.74 2198.75 769.74C2196.58 769.74 2194.95 769.345 2193.86 768.556C2192.88 767.668 2192.38 766.287 2192.38 764.412V730.816ZM2230.68 742.36L2230.09 733.036L2274.79 726.968C2274.39 721.541 2272.52 717.101 2269.16 713.648C2265.81 710.096 2261.17 708.32 2255.25 708.32C2249.14 708.32 2244.05 710.54 2240.01 714.98C2236.06 719.321 2234.09 725.587 2234.09 733.776V737.032C2234.78 744.925 2237.34 750.944 2241.78 755.088C2246.32 759.133 2252.49 761.156 2260.28 761.156C2264.43 761.156 2268.18 760.465 2271.53 759.084C2274.89 757.703 2277.55 756.223 2279.52 754.644C2280.61 755.335 2281.45 756.173 2282.04 757.16C2282.73 758.048 2283.08 759.084 2283.08 760.268C2283.08 762.143 2281.99 763.919 2279.82 765.596C2277.75 767.175 2274.94 768.457 2271.38 769.444C2267.93 770.431 2264.03 770.924 2259.69 770.924C2252.1 770.924 2245.48 769.543 2239.86 766.78C2234.34 764.017 2230.04 759.923 2226.98 754.496C2224.02 748.971 2222.54 742.261 2222.54 734.368C2222.54 728.744 2223.33 723.761 2224.91 719.42C2226.59 714.98 2228.86 711.231 2231.72 708.172C2234.68 705.113 2238.18 702.795 2242.23 701.216C2246.27 699.539 2250.66 698.7 2255.4 698.7C2261.42 698.7 2266.7 699.983 2271.24 702.548C2275.87 705.113 2279.48 708.715 2282.04 713.352C2284.7 717.891 2286.04 723.12 2286.04 729.04C2286.04 731.211 2285.54 732.789 2284.56 733.776C2283.57 734.664 2282.19 735.207 2280.41 735.404L2230.68 742.36ZM2314.98 713.352V736.736H2303.14V714.24C2303.14 711.971 2303.53 710.195 2304.32 708.912C2305.21 707.531 2306.64 706.199 2308.62 704.916C2311.18 703.239 2314.68 701.808 2319.12 700.624C2323.56 699.341 2328.5 698.7 2333.92 698.7C2341.82 698.7 2345.76 700.673 2345.76 704.62C2345.76 705.607 2345.62 706.544 2345.32 707.432C2345.02 708.221 2344.63 708.912 2344.14 709.504C2343.15 709.307 2341.87 709.109 2340.29 708.912C2338.71 708.715 2337.13 708.616 2335.55 708.616C2331.01 708.616 2327.02 709.109 2323.56 710.096C2320.11 710.984 2317.25 712.069 2314.98 713.352ZM2303.14 729.928L2314.98 731.704V768.704C2314.49 768.901 2313.75 769.099 2312.76 769.296C2311.77 769.592 2310.69 769.74 2309.5 769.74C2307.43 769.74 2305.85 769.345 2304.77 768.556C2303.68 767.668 2303.14 766.287 2303.14 764.412V729.928ZM2407.9 750.796C2407.9 757.111 2405.58 762.044 2400.94 765.596C2396.31 769.148 2389.6 770.924 2380.81 770.924C2373.32 770.924 2367.2 769.789 2362.46 767.52C2357.73 765.152 2355.36 762.587 2355.36 759.824C2355.36 758.64 2355.65 757.505 2356.25 756.42C2356.94 755.236 2357.92 754.299 2359.21 753.608C2361.87 755.483 2364.98 757.209 2368.53 758.788C2372.08 760.367 2376.13 761.156 2380.67 761.156C2390.93 761.156 2396.06 757.703 2396.06 750.796C2396.06 747.935 2395.17 745.616 2393.39 743.84C2391.72 741.965 2389.2 740.633 2385.85 739.844L2373.56 736.588C2367.54 735.108 2363.15 732.839 2360.39 729.78C2357.63 726.623 2356.25 722.725 2356.25 718.088C2356.25 712.859 2358.37 708.32 2362.61 704.472C2366.85 700.624 2373.32 698.7 2382 698.7C2386.64 698.7 2390.68 699.193 2394.13 700.18C2397.59 701.068 2400.25 702.301 2402.13 703.88C2404.1 705.36 2405.09 706.988 2405.09 708.764C2405.09 710.047 2404.74 711.181 2404.05 712.168C2403.46 713.155 2402.62 713.895 2401.53 714.388C2400.35 713.599 2398.82 712.76 2396.95 711.872C2395.17 710.885 2393.05 710.096 2390.58 709.504C2388.12 708.813 2385.4 708.468 2382.44 708.468C2378.1 708.468 2374.6 709.307 2371.93 710.984C2369.27 712.661 2367.94 715.029 2367.94 718.088C2367.94 720.259 2368.68 722.183 2370.16 723.86C2371.74 725.439 2374.2 726.623 2377.56 727.412L2387.77 729.928C2394.48 731.507 2399.51 734.023 2402.87 737.476C2406.22 740.831 2407.9 745.271 2407.9 750.796ZM2450.3 710.984C2450.3 708.616 2450.99 706.643 2452.37 705.064C2453.85 703.485 2455.82 702.696 2458.29 702.696C2460.85 702.696 2462.83 703.485 2464.21 705.064C2465.69 706.643 2466.43 708.616 2466.43 710.984C2466.43 713.352 2465.69 715.325 2464.21 716.904C2462.83 718.384 2460.85 719.124 2458.29 719.124C2455.82 719.124 2453.85 718.384 2452.37 716.904C2450.99 715.325 2450.3 713.352 2450.3 710.984ZM2450.3 762.784C2450.3 760.416 2450.99 758.443 2452.37 756.864C2453.75 755.285 2455.72 754.496 2458.29 754.496C2460.85 754.496 2462.83 755.285 2464.21 756.864C2465.69 758.443 2466.43 760.416 2466.43 762.784C2466.43 765.053 2465.69 766.977 2464.21 768.556C2462.83 770.135 2460.85 770.924 2458.29 770.924C2455.72 770.924 2453.75 770.135 2452.37 768.556C2450.99 766.977 2450.3 765.053 2450.3 762.784ZM2479.81 786.168C2478.43 786.168 2477.2 785.724 2476.11 784.836C2475.13 784.047 2474.39 783.06 2473.89 781.876C2479.81 773.785 2484.06 765.497 2486.62 757.012C2489.29 748.527 2490.62 739.005 2490.62 728.448C2490.62 717.891 2489.14 708.221 2486.18 699.44C2483.32 690.56 2479.22 682.716 2473.89 675.908C2474.39 674.724 2475.13 673.737 2476.11 672.948C2477.2 672.159 2478.43 671.764 2479.81 671.764C2481.39 671.764 2482.82 672.307 2484.11 673.392C2485.49 674.477 2486.82 676.007 2488.1 677.98C2491.75 683.407 2494.96 690.461 2497.72 699.144C2500.48 707.728 2501.87 717.496 2501.87 728.448C2501.87 739.499 2500.68 749.267 2498.31 757.752C2495.95 766.139 2492.54 773.489 2488.1 779.804C2486.82 781.777 2485.49 783.307 2484.11 784.392C2482.82 785.576 2481.39 786.168 2479.81 786.168Z" fill="white"/>
<defs>
<linearGradient id="paint0_linear_402_124" x1="540" y1="707.5" x2="540" y2="984" gradientUnits="userSpaceOnUse">
<stop stop-color="#BCBCBC" stop-opacity="0.34"/>
<stop offset="1" stop-color="#FE6E61" stop-opacity="0.57"/>
</linearGradient>
</defs>
</svg>
